<svg xmlns="http://www.w3.org/2000/svg" viewBox="0 0 1280 366"><path fill="#108ee9" fill-rule="evenodd" d="M 1157 101 L 1149 107 L 1135 122 L 1127 136 L 1122 151 L 1121 163 L 1120 164 L 1120 277 L 1160 277 L 1160 238 L 1161 237 L 1238 237 L 1239 238 L 1239 277 L 1279 277 L 1279 164 L 1278 163 L 1277 151 L 1273 138 L 1264 122 L 1249 106 L 1242 101 L 1228 94 L 1214 90 L 1208 90 L 1207 89 L 1186 90 L 1174 93 Z M 1164 151 L 1168 145 L 1177 136 L 1187 131 L 1196 129 L 1203 129 L 1217 133 L 1222 136 L 1232 146 L 1236 153 L 1240 171 L 1240 192 L 1238 196 L 1161 196 L 1160 195 L 1159 177 L 1160 176 L 1160 164 Z M 926 103 L 909 119 L 903 128 L 898 138 L 893 154 L 892 276 L 893 277 L 931 277 L 931 169 L 932 168 L 933 157 L 938 147 L 948 137 L 959 131 L 968 129 L 975 129 L 984 131 L 995 137 L 1003 145 L 1010 158 L 1011 177 L 1012 178 L 1012 277 L 1050 277 L 1051 276 L 1051 271 L 1050 270 L 1050 154 L 1043 134 L 1036 122 L 1022 107 L 1012 100 L 1000 94 L 986 90 L 980 90 L 979 89 L 957 90 L 943 94 Z M 696 104 L 683 116 L 675 127 L 668 142 L 665 153 L 664 171 L 663 172 L 663 206 L 664 207 L 664 217 L 663 218 L 663 273 L 664 277 L 703 277 L 703 238 L 704 237 L 782 237 L 783 238 L 783 277 L 823 277 L 823 169 L 822 168 L 822 159 L 817 139 L 807 121 L 794 107 L 784 100 L 772 94 L 758 90 L 752 90 L 751 89 L 728 90 L 712 95 Z M 710 147 L 722 135 L 734 130 L 747 129 L 756 131 L 764 135 L 775 145 L 782 160 L 782 165 L 783 166 L 783 195 L 782 196 L 704 196 L 703 195 L 703 168 L 704 167 L 704 161 Z M 437 89 L 436 90 L 436 277 L 515 277 L 525 275 L 536 271 L 557 259 L 573 244 L 583 229 L 589 216 L 594 196 L 594 171 L 593 170 L 593 165 L 587 146 L 577 128 L 570 119 L 558 108 L 549 102 L 533 94 L 524 91 L 514 90 L 513 89 Z M 478 129 L 505 129 L 520 132 L 534 140 L 545 151 L 550 159 L 555 177 L 555 187 L 552 201 L 544 216 L 533 227 L 523 233 L 507 237 L 476 237 L 475 236 L 475 131 Z M 165 0 L 133 6 L 108 15 L 94 22 L 66 41 L 41 66 L 22 94 L 15 108 L 6 133 L 0 165 L 0 200 L 6 232 L 15 257 L 22 271 L 41 299 L 66 324 L 94 343 L 108 350 L 133 359 L 157 364 L 165 364 L 166 365 L 199 365 L 200 364 L 208 364 L 232 359 L 252 352 L 271 343 L 299 324 L 324 299 L 343 271 L 352 252 L 359 232 L 364 208 L 364 200 L 365 199 L 365 166 L 364 165 L 364 157 L 359 133 L 350 108 L 343 94 L 324 66 L 299 41 L 271 22 L 250 12 L 232 6 L 200 0 Z M 288 126 L 290 130 L 290 236 L 287 239 L 266 229 L 257 227 L 250 227 L 249 226 L 238 226 L 237 227 L 230 227 L 211 231 L 159 249 L 131 255 L 112 255 L 102 253 L 81 244 L 76 238 L 76 130 L 78 128 L 80 128 L 95 137 L 104 140 L 115 141 L 116 142 L 127 142 L 128 141 L 135 141 L 149 138 L 215 114 L 240 109 L 256 110 L 270 114 L 280 119 Z"/>
<path fill="#ffffff" fill-rule="evenodd" d="M 287 127 L 277 119 L 262 113 L 252 111 L 235 111 L 204 119 L 166 134 L 151 139 L 133 143 L 111 143 L 96 139 L 82 131 L 78 130 L 77 133 L 77 235 L 78 239 L 84 244 L 104 252 L 109 253 L 135 253 L 157 248 L 202 232 L 233 225 L 255 225 L 268 228 L 286 237 L 288 237 L 288 129 Z"/></svg>
