<svg xmlns="http://www.w3.org/2000/svg" viewBox="0 0 120 58"><path fill="#00a5cf" fill-rule="evenodd" d="M 53 1 L 48 4 L 43 11 L 42 20 L 44 26 L 50 32 L 54 34 L 67 33 L 73 28 L 76 22 L 75 10 L 69 3 L 61 0 Z M 52 8 L 57 7 L 63 8 L 66 11 L 65 12 L 55 12 L 65 12 L 70 16 L 70 22 L 66 27 L 53 27 L 50 25 L 49 23 L 49 11 Z"/>
<path fill="#111111" fill-rule="evenodd" d="M 56 55 L 58 55 L 58 52 L 63 51 L 66 47 L 69 51 L 73 50 L 76 51 L 76 44 L 77 43 L 81 50 L 79 55 L 81 55 L 88 42 L 85 42 L 82 47 L 79 42 L 77 42 L 76 44 L 74 42 L 69 42 L 67 44 L 69 46 L 67 48 L 63 42 L 56 42 Z M 69 48 L 70 47 L 74 48 L 71 50 Z M 69 45 L 71 43 L 73 44 L 72 46 Z M 60 43 L 63 45 L 62 49 L 58 48 L 58 45 Z M 46 42 L 43 46 L 44 49 L 46 51 L 51 51 L 53 49 L 53 44 L 51 42 Z M 48 43 L 51 45 L 50 49 L 47 49 L 45 46 Z M 34 42 L 31 45 L 31 47 L 34 51 L 32 53 L 34 55 L 39 55 L 41 53 L 41 42 Z M 33 52 L 34 51 L 39 52 L 38 53 Z M 33 46 L 35 44 L 38 44 L 39 48 L 35 49 Z"/>
<path fill="#ffffff" fill-rule="evenodd" d="M 53 9 L 50 13 L 50 22 L 51 24 L 54 26 L 65 26 L 68 24 L 68 15 L 67 14 L 54 14 L 53 13 L 54 11 L 64 11 L 63 9 Z M 63 18 L 66 17 L 67 19 L 65 21 Z"/></svg>
