<svg xmlns="http://www.w3.org/2000/svg" viewBox="0 0 1280 399"><path fill="#4c2683" fill-rule="evenodd" d="M 432 11 L 432 73 L 476 73 L 512 150 L 512 152 L 529 187 L 529 189 L 546 224 L 546 226 L 552 237 L 557 250 L 563 261 L 568 274 L 580 298 L 585 311 L 597 335 L 597 337 L 612 365 L 624 379 L 638 388 L 660 395 L 679 398 L 837 47 L 837 11 L 698 11 L 698 73 L 746 73 L 747 75 L 705 173 L 701 180 L 689 210 L 685 217 L 673 247 L 669 254 L 660 277 L 655 286 L 560 74 L 561 73 L 600 73 L 600 11 Z M 1059 0 L 1058 1 L 1048 1 L 1047 2 L 1034 3 L 1013 8 L 995 14 L 981 21 L 979 21 L 959 32 L 933 51 L 914 70 L 901 87 L 890 105 L 882 122 L 875 142 L 871 158 L 869 177 L 868 178 L 868 215 L 869 216 L 871 235 L 875 251 L 882 271 L 891 290 L 903 309 L 913 322 L 934 343 L 947 353 L 969 367 L 983 374 L 1006 383 L 1009 383 L 1024 388 L 1040 391 L 1046 391 L 1047 392 L 1089 393 L 1090 392 L 1099 392 L 1100 391 L 1112 390 L 1130 386 L 1163 374 L 1195 356 L 1212 343 L 1226 330 L 1248 302 L 1254 292 L 1267 264 L 1273 245 L 1277 225 L 1278 207 L 1279 206 L 1279 187 L 1278 186 L 1277 168 L 1273 148 L 1263 119 L 1254 101 L 1241 81 L 1233 71 L 1212 50 L 1199 40 L 1175 25 L 1151 14 L 1133 8 L 1098 1 Z M 1051 65 L 1057 65 L 1058 64 L 1090 64 L 1091 65 L 1102 66 L 1124 73 L 1140 81 L 1152 89 L 1173 109 L 1184 124 L 1195 146 L 1202 172 L 1202 178 L 1203 179 L 1203 209 L 1202 210 L 1202 217 L 1200 227 L 1193 248 L 1180 271 L 1173 280 L 1157 296 L 1142 307 L 1120 318 L 1094 325 L 1062 326 L 1061 325 L 1048 324 L 1025 317 L 1007 308 L 998 302 L 977 283 L 964 266 L 952 242 L 945 214 L 944 184 L 945 183 L 945 175 L 946 174 L 947 164 L 954 142 L 964 123 L 979 104 L 997 88 L 1013 78 L 1026 72 Z M 168 2 L 146 7 L 125 14 L 90 32 L 67 49 L 45 71 L 35 84 L 23 103 L 14 122 L 6 145 L 2 163 L 1 176 L 0 177 L 0 216 L 1 217 L 1 224 L 4 240 L 9 258 L 17 278 L 27 297 L 45 322 L 59 337 L 73 349 L 90 361 L 102 368 L 128 380 L 150 387 L 164 390 L 169 390 L 176 392 L 185 392 L 186 393 L 225 393 L 226 392 L 247 390 L 252 388 L 264 386 L 285 379 L 317 363 L 337 349 L 350 338 L 365 322 L 378 305 L 386 292 L 399 264 L 405 245 L 409 226 L 410 208 L 411 207 L 411 185 L 410 184 L 410 174 L 409 173 L 407 156 L 402 137 L 396 121 L 388 104 L 377 86 L 362 67 L 347 52 L 319 31 L 307 24 L 283 13 L 265 7 L 248 3 L 228 1 L 227 0 L 184 0 L 183 1 Z M 189 64 L 221 64 L 241 68 L 258 74 L 268 79 L 286 91 L 302 106 L 318 128 L 325 142 L 330 156 L 334 175 L 334 183 L 335 184 L 334 214 L 330 233 L 325 247 L 318 261 L 307 277 L 292 293 L 272 308 L 246 320 L 231 324 L 218 325 L 217 326 L 193 326 L 168 321 L 144 311 L 122 296 L 106 280 L 92 260 L 86 248 L 80 231 L 77 217 L 77 210 L 76 209 L 76 179 L 80 158 L 86 141 L 92 129 L 102 114 L 121 94 L 139 81 L 160 71 L 173 67 Z"/></svg>
