<svg xmlns="http://www.w3.org/2000/svg" viewBox="0 0 120 42"><path fill="#f65d00" fill-rule="evenodd" d="M 109 25 L 108 30 L 111 34 L 119 33 L 119 32 L 113 33 L 110 30 L 111 29 L 119 29 L 119 26 L 116 23 L 112 23 Z M 110 27 L 112 25 L 117 26 L 116 28 L 111 28 Z M 96 25 L 95 30 L 98 34 L 106 33 L 106 32 L 100 33 L 97 30 L 98 29 L 106 29 L 106 26 L 103 23 L 99 23 Z M 97 27 L 99 25 L 102 25 L 104 27 L 103 28 L 98 28 Z M 89 23 L 84 24 L 81 23 L 81 41 L 82 41 L 82 34 L 83 33 L 84 34 L 89 34 L 92 32 L 93 28 Z M 84 26 L 88 25 L 91 28 L 90 31 L 87 33 L 83 30 Z M 71 23 L 67 26 L 67 31 L 70 34 L 75 34 L 78 31 L 78 27 L 76 24 Z M 69 27 L 71 25 L 74 25 L 76 27 L 76 30 L 74 32 L 71 32 L 69 30 Z M 54 15 L 54 34 L 56 33 L 56 26 L 57 25 L 62 26 L 62 33 L 64 34 L 64 25 L 62 23 L 57 23 L 56 22 L 56 16 Z M 44 15 L 41 17 L 40 22 L 42 24 L 48 26 L 50 28 L 50 31 L 47 33 L 40 31 L 40 32 L 43 34 L 49 34 L 51 33 L 52 28 L 50 25 L 44 23 L 42 21 L 42 19 L 44 17 L 50 18 L 50 16 Z M 14 0 L 11 3 L 10 8 L 8 11 L 0 11 L 1 35 L 4 39 L 30 39 L 33 36 L 34 11 L 26 11 L 24 9 L 24 6 L 21 1 Z M 11 31 L 12 30 L 15 32 L 20 31 L 22 32 L 20 34 L 14 34 Z M 21 25 L 23 27 L 22 32 L 20 27 Z M 18 25 L 19 24 L 21 25 L 20 26 Z M 14 15 L 20 15 L 22 17 L 21 18 L 15 17 L 13 19 L 15 22 L 19 24 L 18 25 L 14 24 L 11 21 L 11 18 Z M 12 5 L 17 1 L 21 4 L 23 10 L 22 11 L 12 11 L 11 10 Z"/></svg>
