<svg xmlns="http://www.w3.org/2000/svg" viewBox="0 0 512 512" width="512" height="512" role="img" aria-label="Minyak goreng icon">
  <title>Minyak goreng</title>
  <path fill="#FFD33A" fill-rule="evenodd" d="M 216 436 L 217 464 L 224 474 L 234 479 L 453 479 L 463 474 L 471 461 L 471 436 L 467 432 L 220 432 Z M 40 436 L 41 464 L 48 474 L 58 479 L 149 479 L 159 474 L 167 461 L 167 436 L 163 432 L 44 432 Z M 216 404 L 216 411 L 220 415 L 467 415 L 471 411 L 471 404 L 467 400 L 220 400 Z M 40 404 L 40 411 L 44 415 L 163 415 L 167 411 L 167 404 L 163 400 L 44 400 Z M 216 372 L 216 379 L 220 383 L 467 383 L 471 379 L 471 372 L 467 368 L 220 368 Z M 40 372 L 40 379 L 44 383 L 163 383 L 167 379 L 167 372 L 163 368 L 44 368 Z M 456 336 L 456 351 L 467 351 L 471 347 L 471 340 L 467 336 Z M 220 336 L 216 340 L 216 347 L 220 351 L 231 351 L 231 336 Z M 40 340 L 40 347 L 44 351 L 163 351 L 167 347 L 167 340 L 163 336 L 44 336 Z M 456 304 L 456 319 L 467 319 L 471 315 L 471 308 L 467 304 Z M 220 304 L 216 308 L 216 315 L 220 319 L 231 319 L 231 304 Z M 40 304 L 40 315 L 44 319 L 163 319 L 167 315 L 167 304 Z M 343 280 L 341 283 L 342 284 L 339 286 L 340 287 L 331 297 L 331 300 L 328 303 L 328 310 L 330 314 L 337 319 L 350 319 L 357 314 L 356 313 L 359 310 L 359 303 Z M 456 272 L 456 287 L 467 287 L 471 283 L 471 276 L 467 272 Z M 220 272 L 216 276 L 216 283 L 220 287 L 231 287 L 231 272 Z M 456 240 L 456 255 L 467 255 L 471 251 L 471 244 L 467 240 Z M 220 240 L 216 244 L 216 251 L 220 255 L 231 255 L 231 240 Z M 103 216 L 99 222 L 100 223 L 91 233 L 91 236 L 88 239 L 88 246 L 90 250 L 97 255 L 110 255 L 117 250 L 116 249 L 119 246 L 119 239 Z M 219 159 L 387 159 L 392 164 L 392 171 L 387 176 L 216 176 L 216 219 L 220 223 L 467 223 L 471 219 L 471 176 L 412 176 L 407 171 L 407 164 L 412 159 L 468 159 L 445 148 L 444 149 L 439 145 L 432 142 L 431 143 L 426 139 L 419 136 L 418 137 L 413 133 L 406 130 L 405 131 L 400 127 L 393 124 L 392 125 L 387 121 L 380 118 L 379 119 L 378 117 L 377 118 L 376 116 L 367 112 L 320 112 L 309 117 L 308 119 L 307 118 L 300 121 L 295 125 L 294 124 L 287 127 L 282 131 L 281 130 L 274 133 L 269 137 L 268 136 L 261 139 L 256 143 L 255 142 L 248 145 L 243 149 L 242 148 Z M 40 148 L 40 159 L 167 159 L 166 146 L 125 112 L 82 112 Z M 328 80 L 328 95 L 359 95 L 359 80 Z M 88 80 L 88 95 L 119 95 L 119 80 Z"/>
  <path fill="#EA9F26" fill-rule="evenodd" d="M 248 240 L 248 351 L 439 351 L 439 240 Z M 340 255 L 346 255 L 352 260 L 360 275 L 372 291 L 376 301 L 376 313 L 372 322 L 363 331 L 352 336 L 335 336 L 327 333 L 319 327 L 311 313 L 312 297 L 335 260 Z M 40 176 L 40 287 L 167 287 L 167 176 Z M 100 191 L 106 191 L 112 196 L 120 211 L 132 227 L 136 237 L 136 249 L 132 258 L 123 267 L 112 272 L 95 272 L 87 269 L 79 263 L 71 249 L 72 233 L 95 196 Z M 321 36 L 320 63 L 367 63 L 367 39 L 363 33 L 327 32 Z M 81 36 L 80 63 L 127 63 L 127 39 L 123 33 L 87 32 Z"/>
  <path fill="#000000" fill-rule="evenodd" d="M 343 256 L 337 260 L 330 273 L 318 289 L 313 299 L 312 309 L 316 321 L 325 330 L 334 334 L 348 335 L 356 333 L 368 325 L 373 317 L 375 304 L 369 289 L 357 273 L 352 263 L 347 257 Z M 343 279 L 360 303 L 360 310 L 358 314 L 350 320 L 337 320 L 333 318 L 327 310 L 327 303 Z M 103 192 L 97 196 L 90 209 L 78 225 L 73 235 L 72 245 L 76 257 L 85 266 L 94 270 L 108 271 L 116 269 L 128 261 L 133 253 L 135 240 L 129 225 L 117 209 L 112 199 L 107 193 Z M 103 215 L 120 239 L 120 246 L 118 250 L 110 256 L 97 256 L 93 254 L 87 246 L 87 239 Z M 323 16 L 314 20 L 308 26 L 304 35 L 304 74 L 307 78 L 312 80 L 312 98 L 211 145 L 203 153 L 200 161 L 200 220 L 206 231 L 200 243 L 200 252 L 206 263 L 200 275 L 200 284 L 206 295 L 200 307 L 200 316 L 206 327 L 200 339 L 200 348 L 206 359 L 200 371 L 200 380 L 206 391 L 200 403 L 200 412 L 206 423 L 200 435 L 201 466 L 206 477 L 214 486 L 226 493 L 234 495 L 458 494 L 469 489 L 479 480 L 485 469 L 487 461 L 487 435 L 481 424 L 487 412 L 487 403 L 481 392 L 487 380 L 487 371 L 481 360 L 487 348 L 487 339 L 481 328 L 487 316 L 487 307 L 481 296 L 487 284 L 487 275 L 481 264 L 487 252 L 487 243 L 481 232 L 487 220 L 487 161 L 484 153 L 476 145 L 375 98 L 375 80 L 380 78 L 383 74 L 383 35 L 381 29 L 373 20 L 364 16 Z M 215 436 L 220 431 L 467 431 L 472 436 L 472 461 L 467 471 L 460 477 L 453 480 L 234 480 L 224 475 L 216 464 Z M 215 404 L 220 399 L 467 399 L 472 404 L 472 411 L 467 416 L 220 416 L 215 411 Z M 215 372 L 220 367 L 467 367 L 472 372 L 472 379 L 467 384 L 220 384 L 215 379 Z M 455 336 L 467 335 L 472 340 L 472 347 L 467 352 L 456 352 Z M 220 335 L 232 336 L 231 352 L 220 352 L 215 347 L 215 340 Z M 455 304 L 467 303 L 472 308 L 472 315 L 467 320 L 456 320 Z M 220 303 L 232 304 L 231 320 L 220 320 L 215 315 L 215 308 Z M 455 272 L 467 271 L 472 276 L 472 283 L 467 288 L 456 288 Z M 220 271 L 232 272 L 231 288 L 220 288 L 215 283 L 215 276 Z M 455 240 L 467 239 L 472 244 L 472 251 L 467 256 L 456 256 Z M 247 240 L 439 239 L 440 351 L 248 352 Z M 220 239 L 232 240 L 231 256 L 220 256 L 215 251 L 215 244 Z M 218 159 L 320 111 L 367 111 L 469 159 L 415 160 L 409 164 L 408 168 L 409 171 L 415 175 L 471 175 L 472 219 L 467 224 L 220 224 L 215 219 L 216 175 L 384 175 L 390 171 L 391 167 L 390 164 L 384 160 Z M 327 80 L 359 79 L 360 95 L 328 96 Z M 320 35 L 325 31 L 364 32 L 368 37 L 368 63 L 320 64 Z M 83 16 L 74 20 L 68 26 L 64 35 L 64 74 L 67 78 L 72 80 L 72 100 L 33 132 L 27 139 L 24 147 L 24 316 L 30 327 L 24 339 L 24 348 L 30 359 L 24 371 L 24 380 L 30 391 L 24 403 L 24 412 L 30 423 L 24 435 L 24 461 L 26 469 L 32 480 L 42 489 L 53 494 L 149 495 L 157 493 L 168 487 L 177 477 L 183 461 L 183 435 L 177 424 L 183 412 L 183 403 L 177 392 L 183 380 L 183 371 L 177 360 L 183 348 L 183 339 L 177 328 L 183 316 L 183 147 L 180 139 L 173 131 L 135 100 L 135 80 L 140 78 L 143 74 L 143 35 L 139 26 L 133 20 L 124 16 Z M 39 436 L 44 431 L 163 431 L 168 436 L 168 461 L 163 471 L 156 477 L 149 480 L 58 480 L 48 475 L 40 464 Z M 39 404 L 44 399 L 163 399 L 168 404 L 168 411 L 163 416 L 44 416 L 39 411 Z M 39 372 L 44 367 L 163 367 L 168 372 L 168 379 L 163 384 L 44 384 L 39 379 Z M 39 340 L 44 335 L 163 335 L 168 340 L 168 347 L 163 352 L 44 352 L 39 347 Z M 39 304 L 167 303 L 168 315 L 163 320 L 44 320 L 39 315 Z M 39 176 L 167 175 L 168 287 L 40 288 Z M 39 148 L 82 111 L 125 111 L 167 146 L 168 159 L 40 160 Z M 87 80 L 119 79 L 120 95 L 88 96 Z M 80 35 L 85 31 L 124 32 L 128 37 L 128 63 L 80 64 Z"/>
</svg>
